HIERARCHY
ROOT Hips
{
 OFFSET 0.000000 0.000000 0.000000
 CHANNELS 6 Xposition Yposition Zposition Yrotation Xrotation Zrotation
 JOINT Chest
 {
  OFFSET 0.000000 14.632000 -0.008700
  CHANNELS 3 Yrotation Xrotation Zrotation
  JOINT Chest2
  {
   OFFSET 0.000000 8.637700 0.017800
   CHANNELS 3 Yrotation Xrotation Zrotation
   JOINT Chest3
   {
    OFFSET 0.000000 8.599900 0.000000
    CHANNELS 3 Yrotation Xrotation Zrotation
    JOINT Chest4
    {
     OFFSET 0.000000 8.591100 0.000000
     CHANNELS 3 Yrotation Xrotation Zrotation
     JOINT Neck
     {
      OFFSET 0.000000 13.139200 0.000000
      CHANNELS 3 Yrotation Xrotation Zrotation
      JOINT Head
      {
       OFFSET 0.000000 8.045900 0.037600
       CHANNELS 3 Yrotation Xrotation Zrotation
       End Site
       {
        OFFSET 0.000000 15.258900 0.019900
       }
      }
     }
     JOINT RightCollar
     {
      OFFSET -2.790300 8.725300 0.000000
      CHANNELS 3 Yrotation Xrotation Zrotation
      JOINT RightShoulder
      {
       OFFSET -13.162000 0.000000 0.000000
       CHANNELS 3 Yrotation Xrotation Zrotation
       JOINT RightElbow
       {
        OFFSET 0.000000 -23.347200 0.000000
        CHANNELS 3 Yrotation Xrotation Zrotation
        JOINT RightWrist
        {
         OFFSET 0.000000 -19.377400 0.019700
         CHANNELS 3 Yrotation Xrotation Zrotation
         End Site
         {
          OFFSET 0.000000 -14.645200 0.000000
         }
        }
       }
      }
     }
     JOINT LeftCollar
     {
      OFFSET 2.790300 8.725300 0.000000
      CHANNELS 3 Yrotation Xrotation Zrotation
      JOINT LeftShoulder
      {
       OFFSET 13.162000 0.000000 0.000000
       CHANNELS 3 Yrotation Xrotation Zrotation
       JOINT LeftElbow
       {
        OFFSET 0.000000 -23.347200 0.000000
        CHANNELS 3 Yrotation Xrotation Zrotation
        JOINT LeftWrist
        {
         OFFSET 0.000000 -19.377400 0.019700
         CHANNELS 3 Yrotation Xrotation Zrotation
         End Site
         {
          OFFSET 0.000000 -14.645200 0.000000
         }
        }
       }
      }
     }
    }
   }
  }
 }
 JOINT RightHip
 {
  OFFSET -11.965000 0.043200 0.004400
  CHANNELS 3 Yrotation Xrotation Zrotation
  JOINT RightKnee
  {
   OFFSET 0.000000 -37.808000 -0.003100
   CHANNELS 3 Yrotation Xrotation Zrotation
   JOINT RightAnkle
   {
    OFFSET 0.000000 -38.963200 0.011000
    CHANNELS 3 Yrotation Xrotation Zrotation
    JOINT RightToe
    {
     OFFSET 0.000000 -8.453600 14.155200
     CHANNELS 3 Yrotation Xrotation Zrotation
     End Site
     {
      OFFSET 0.000000 -1.360900 5.784800
     }
    }
   }
  }
 }
 JOINT LeftHip
 {
  OFFSET 11.965000 0.043200 0.004400
  CHANNELS 3 Yrotation Xrotation Zrotation
  JOINT LeftKnee
  {
   OFFSET 0.000000 -37.808000 -0.003100
   CHANNELS 3 Yrotation Xrotation Zrotation
   JOINT LeftAnkle
   {
    OFFSET 0.000000 -38.963200 0.011000
    CHANNELS 3 Yrotation Xrotation Zrotation
    JOINT LeftToe
    {
     OFFSET 0.000000 -8.453600 14.155200
     CHANNELS 3 Yrotation Xrotation Zrotation
     End Site
     {
      OFFSET 0.000000 -1.360900 5.784800
     }
    }
   }
  }
 }
}
MOTION
Frames: 13
Frame Time: 0.008333
-86.535349 61.276872 2.010050 179.900628 -31.397557 -3.536169 2.103415 23.085807 2.748729 0.240756 3.398517 0.286263 0.405128 5.468523 0.457256 1.680098 19.466304 1.891535 -0.793847 13.071752 -0.940252 -1.121658 -11.554790 -1.490822 0.788959 -0.877044 -1.990655 1.341658 -8.398188 -9.355867 117.663034 -75.691813 -100.634011 22.895811 -16.349074 -59.945738 -4.580091 1.043536 1.575620 22.994931 -1.480672 -2.644473 -131.256790 -52.557753 123.278605 -11.272425 -18.556404 39.622761 6.581161 -38.797987 -4.930438 -3.673108 70.917913 -2.385065 2.875926 4.337082 6.247009 -0.044181 0.079417 -0.020350 -10.527335 -47.278957 4.205032 30.117293 69.750268 28.387130 -8.386458 30.610122 2.404969 1.112808 -23.795042 -5.594995
-86.537141 61.275417 2.009973 179.893898 -31.393060 -3.529353 2.101924 23.091189 2.748665 0.240739 3.400557 0.286872 0.400719 5.480708 0.467053 1.681486 19.459656 1.888045 -0.801071 13.024496 -0.955757 -1.127351 -11.647153 -1.511080 0.796886 -0.905322 -2.001552 1.364754 -8.409767 -9.358123 117.894981 -75.687493 -100.835197 22.890639 -16.350699 -59.937515 -4.574768 1.004521 1.569155 22.987601 -1.469615 -2.634191 -131.290829 -52.560159 123.307470 -11.273465 -18.575186 39.626237 6.592665 -38.803889 -4.936281 -3.659328 70.920431 -2.375499 2.872428 4.339444 6.253760 -0.046516 0.077479 -0.022470 -10.522360 -47.282220 4.196888 30.118225 69.746188 28.392072 -8.389756 30.608319 2.414642 1.112238 -23.793322 -5.609145
-86.538414 61.274488 2.009943 179.886246 -31.390464 -3.521124 2.099102 23.101762 2.747093 0.245517 3.393858 0.283361 0.401369 5.477904 0.466421 1.676846 19.497744 1.906292 -0.806043 12.954586 -0.978109 -1.132129 -11.740383 -1.528155 0.826732 -0.983648 -2.003956 1.373307 -8.391039 -9.376417 117.953156 -75.687458 -100.888932 22.882442 -16.397355 -59.928504 -4.563566 0.936066 1.565040 22.970425 -1.449746 -2.628637 -131.315223 -52.560197 123.336114 -11.275649 -18.591209 39.630566 6.602982 -38.807960 -4.940824 -3.640191 70.922988 -2.362318 2.868030 4.341580 6.258854 -0.046271 0.077298 -0.023674 -10.516063 -47.283857 4.187694 30.112151 69.741964 28.388477 -8.379500 30.612303 2.421260 1.104098 -23.795689 -5.615007
-86.539206 61.273106 2.011372 179.887311 -31.382435 -3.516305 2.091901 23.099715 2.741681 0.247321 3.395502 0.282811 0.399877 5.488973 0.468973 1.676014 19.491159 1.905134 -0.811533 12.915122 -0.982583 -1.136447 -11.831901 -1.544037 0.835729 -1.002603 -2.004501 1.395026 -8.403631 -9.378894 118.239990 -75.682057 -101.131224 22.884655 -16.351412 -59.929215 -4.560361 0.918785 1.564091 22.944213 -1.466271 -2.619121 -131.350351 -52.561969 123.373224 -11.287138 -18.586233 39.627274 6.609334 -38.816731 -4.947250 -3.621128 70.925461 -2.348556 2.861774 4.344769 6.263004 -0.046070 0.076496 -0.022815 -10.521311 -47.291020 4.181116 30.084515 69.735837 28.363567 -8.366533 30.625818 2.423526 1.097997 -23.801398 -5.620333
-86.538364 61.271749 2.013271 179.876372 -31.374348 -3.508854 2.094409 23.096573 2.740096 0.242323 3.403199 0.285907 0.400101 5.492910 0.469311 1.679511 19.485804 1.901130 -0.814820 12.875132 -0.988811 -1.140243 -11.920814 -1.560118 0.845271 -1.019658 -2.005413 1.420311 -8.415025 -9.385793 118.522918 -75.680056 -101.371031 22.888630 -16.320804 -59.924583 -4.557178 0.901823 1.561626 22.935325 -1.466484 -2.617658 -131.472709 -52.536843 123.452481 -11.304944 -18.524413 39.634169 6.638835 -38.826976 -4.949685 -3.642750 70.925176 -2.369781 2.852633 4.351234 6.270962 -0.038531 0.076320 -0.021173 -10.517478 -47.298919 4.181007 30.038501 69.735575 28.323682 -8.357438 30.641487 2.422942 1.100763 -23.810613 -5.628646
-86.538128 61.269949 2.015883 179.861129 -31.363872 -3.494570 2.096282 23.104858 2.743390 0.242236 3.408906 0.287052 0.402463 5.482416 0.461137 1.678192 19.489244 1.899726 -0.817497 12.829485 -0.998750 -1.145538 -12.007815 -1.575951 0.862844 -1.056364 -2.001436 1.433364 -8.407207 -9.402765 118.739372 -75.681484 -101.553238 22.889107 -16.331629 -59.912823 -4.558546 0.875793 1.562712 22.935486 -1.457261 -2.621099 -131.521436 -52.532591 123.482351 -11.310684 -18.525988 39.630702 6.665444 -38.841472 -4.959594 -3.650893 70.926856 -2.378229 2.850262 4.355016 6.275502 -0.031181 0.081803 -0.021337 -10.506590 -47.310160 4.175117 30.009254 69.733954 28.297378 -8.349328 30.652941 2.424567 1.099435 -23.817172 -5.634903
-86.528845 61.270251 2.016000 179.853099 -31.366300 -3.518029 2.113895 23.108720 2.775133 0.242154 3.415175 0.289786 0.399812 5.488942 0.464539 1.678287 19.493149 1.898567 -0.820483 12.783871 -1.011879 -1.155020 -12.092270 -1.589608 0.865647 -1.077351 -2.008438 1.458492 -8.415952 -9.408854 118.947452 -75.679975 -101.727617 22.894871 -16.285674 -59.918313 -4.558857 0.848875 1.564058 22.925809 -1.448029 -2.622191 -131.531561 -52.534470 123.496576 -11.258318 -18.576450 39.586885 6.652225 -38.838057 -4.916787 -3.663068 70.914106 -2.387446 2.856253 4.371563 6.273862 -0.039231 0.073216 -0.021721 -10.544932 -47.302015 4.225612 29.991141 69.738165 28.270443 -8.305646 30.667995 2.471615 1.078430 -23.832817 -5.665992
-86.527496 61.269446 2.016742 179.848520 -31.364545 -3.511451 2.115461 23.116910 2.775931 0.242632 3.408128 0.285522 0.400661 5.500069 0.468816 1.679974 19.496885 1.897926 -0.825482 12.747780 -1.020846 -1.167497 -12.181136 -1.601731 0.875938 -1.099572 -2.009588 1.467794 -8.419341 -9.418740 119.097183 -75.681859 -101.855815 22.886212 -16.315143 -59.899610 -4.562470 0.830115 1.562874 22.917780 -1.441903 -2.620887 -131.653723 -52.532886 123.556133 -11.275228 -18.535064 39.596856 6.665881 -38.841188 -4.918507 -3.680841 70.916593 -2.408535 2.854977 4.373395 6.280772 -0.038418 0.074405 -0.022530 -10.573673 -47.305122 4.235100 29.995264 69.735942 28.263119 -8.292819 30.685876 2.482743 1.080888 -23.845480 -5.686499
-86.524843 61.268276 2.018040 179.841347 -31.360549 -3.508599 2.123023 23.123147 2.779639 0.243877 3.410390 0.285773 0.402488 5.503587 0.468948 1.696081 19.518943 1.903480 -0.844227 12.702860 -1.023734 -1.179733 -12.281460 -1.615317 0.883893 -1.152588 -2.005657 1.473689 -8.416858 -9.441072 119.098470 -75.698161 -101.871048 22.873024 -16.383602 -59.869918 -4.580838 0.789919 1.564602 22.912436 -1.433827 -2.621051 -131.745495 -52.530307 123.593587 -11.279250 -18.514841 39.602200 6.671689 -38.846571 -4.914830 -3.693095 70.915829 -2.421097 2.856850 4.375895 6.281518 -0.034125 0.079689 -0.021995 -10.587653 -47.309902 4.245625 29.980445 69.738778 28.246518 -8.278028 30.692300 2.481657 1.076781 -23.850110 -5.691014
-86.523179 61.266738 2.019691 179.825265 -31.355100 -3.497662 2.137848 23.126130 2.781937 0.243350 3.420037 0.287587 0.405405 5.509188 0.468873 1.695819 19.509615 1.898864 -0.849139 12.662625 -1.028191 -1.193641 -12.361464 -1.625228 0.888156 -1.175263 -2.004138 1.490109 -8.414257 -9.453625 119.308091 -75.703802 -102.045987 22.882466 -16.341125 -59.877826 -4.594207 0.775625 1.563736 22.890835 -1.406522 -2.618669 -131.782057 -52.512669 123.639099 -11.256635 -18.527583 39.583724 6.682583 -38.856858 -4.912795 -3.711735 70.916578 -2.446263 2.863461 4.380613 6.286951 -0.036535 0.080218 -0.023678 -10.591731 -47.316871 4.252885 29.980913 69.738399 28.238852 -8.263722 30.704921 2.493075 1.074727 -23.859797 -5.702579
-86.521428 61.265948 2.020084 179.818711 -31.354729 -3.492711 2.140633 23.131466 2.780986 0.244147 3.419995 0.287561 0.406535 5.508468 0.467997 1.697686 19.514726 1.898061 -0.854459 12.611142 -1.038386 -1.205542 -12.423166 -1.629525 0.895250 -1.190184 -2.003375 1.506439 -8.413320 -9.463483 119.663425 -75.696351 -102.317006 22.897380 -16.245787 -59.914084 -4.603483 0.763345 1.564744 22.884801 -1.387148 -2.619909 -131.816677 -52.502946 123.664482 -11.244589 -18.534233 39.571636 6.675867 -38.861086 -4.903197 -3.728181 70.918943 -2.472906 2.864753 4.386598 6.287925 -0.034741 0.077664 -0.024193 -10.598916 -47.318069 4.258378 29.985694 69.737650 28.236608 -8.254112 30.713412 2.506193 1.070259 -23.866724 -5.713623
-86.519724 61.265148 2.020595 179.814869 -31.353401 -3.489810 2.137884 23.142047 2.783489 0.248900 3.410148 0.282392 0.406209 5.511451 0.468330 1.693545 19.524658 1.898175 -0.853506 12.582673 -1.044361 -1.210379 -12.460341 -1.633756 0.908504 -1.206405 -2.009225 1.522021 -8.414476 -9.473356 119.769194 -75.697819 -102.405725 22.879187 -16.319317 -59.865859 -4.610488 0.749384 1.559540 22.883308 -1.372919 -2.620497 -131.887679 -52.500109 123.693816 -11.278846 -18.505107 39.599436 6.632736 -38.866729 -4.874462 -3.722021 70.919740 -2.499292 2.870040 4.389573 6.284001 -0.034700 0.077711 -0.022776 -10.599675 -47.319531 4.260091 29.982172 69.736935 28.231091 -8.243989 30.717355 2.515221 1.065637 -23.869201 -5.719817
-86.519110 61.264307 2.021301 179.804715 -31.351099 -3.480189 2.140190 23.148130 2.781043 0.248979 3.410158 0.281915 0.405494 5.513666 0.467835 1.689717 19.534685 1.896051 -0.857607 12.535980 -1.052124 -1.208627 -12.484531 -1.639294 0.924024 -1.226101 -2.020917 1.524008 -8.415843 -9.473768 119.803608 -75.700314 -102.437850 22.873296 -16.361614 -59.837623 -4.611677 0.726632 1.553117 22.880152 -1.356096 -2.621481 -132.004374 -52.500263 123.713270 -11.319539 -18.472951 39.635122 6.623321 -38.872792 -4.871354 -3.762052 70.921145 -2.545701 2.888162 4.391759 6.275947 -0.034362 0.079008 -0.020931 -10.601077 -47.320103 4.264699 29.994676 69.734191 28.233468 -8.241984 30.714759 2.521371 1.067570 -23.866514 -5.725806
